<?xml version="1.0" encoding="utf-8"?>
<!-- Generator: Adobe Illustrator 17.1.0, SVG Export Plug-In . SVG Version: 6.00 Build 0)  -->
<!DOCTYPE svg PUBLIC "-//W3C//DTD SVG 1.1//EN" "http://www.w3.org/Graphics/SVG/1.1/DTD/svg11.dtd">
<svg version="1.1" xmlns="http://www.w3.org/2000/svg" xmlns:xlink="http://www.w3.org/1999/xlink" x="0px" y="0px"
	 viewBox="0 0 1280 800" enable-background="new 0 0 1280 800" xml:space="preserve">
<g id="Layer_2">
	<path fill="#FFD8CA" d="M437.864,275.136c0,0,9.616,26.16,7.955,34.091c-1.662,7.931-23.319,39.652-25.949,46.572
		C417.451,362.163,440,372.123,440,372.123v23.787l11.184,12.81l-1.684,5.606l5.537,12.074c2.147,1.638,0.337,27.188,7.636,32.197
		c9.014,6.187,59.063,2.407,71.114,1.403c0,0,18.788,52.137,15.438,67.409c-3.896,17.761-12.689,44.407-12.672,44.309l152.855-36.11
		l-21.891-66.178c0,0-17.488-42.199-11.472-61.339c6.016-19.14,69.514-81.084,73.781-103.409c8.037-42.045-19.69-107.769-32.872-125
		s-71.127-38.77-97.727-39.773c-26.95-1.015-114.524,23.848-129.202,42.186C456.312,199.228,441.042,260,437.864,275.136z"/>
</g>
<g id="Layer_3">
	<polygon fill="#DDC4BC" points="466.01,301.929 468.935,281.312 510.097,306.67 505.321,316.349 487.6,324.266 474.543,328.038 
		469.869,326.881 505.363,309.179 	"/>
	<path fill="#FFE6DE" d="M470.591,284c3.409,3,31.818,16.045,31.818,16.045l13.636,35.295l4.677-13.93l-10.545-30.129L470.591,284z"
		/>
	<polygon fill="#FFE6DE" points="461.409,332.341 445.5,386.955 467.091,366.5 	"/>
	<polygon fill="#FFE6DE" points="461.5,423.409 470.591,440.455 461.001,456.322 457.664,430.714 451.412,419.659 	"/>
	<polygon fill="#FFE6DE" points="456.67,209.459 451.001,269.455 437.864,275.136 	"/>
	<path fill="#D6877B" d="M441,395.91l16.5,4.09l26.845,5c0,0-26.379,17.288-32.933,13.908c-6.555-3.38-2.412-8.119-2.412-8.119
		v-2.467L441,395.91z"/>
	<polygon fill="#FFE6DE" points="461.328,296.706 456.67,285.312 469.019,281.736 482.485,287.74 	"/>
	<path fill="#736357" d="M447.267,280.86c2.163-0.094,39.824-15.723,39.824-15.723l15.272,4.767L447.267,280.86z"/>
	<polygon fill="#736357" points="451.375,406.44 451.184,411 480.577,407.036 	"/>
	<g>
		<path fill="#FFFFFF" d="M474.058,306.786c0,0-0.916,10.592,5.544,13.363c6.46,2.771,3.191,1.62,3.191,1.62
			c0.485,0.412,23.742-6.861,25.264-11.913c1.404-4.66-28.632-6.897-28.632-6.897L474.058,306.786z"/>
		<path fill="#666666" d="M484.335,311.8c0.877,5.773-0.543,10.688-3.171,10.978c-2.628,0.29-5.47-4.155-6.347-9.928
			c-0.877-5.773,0.543-10.688,3.171-10.978C480.616,301.582,483.458,306.027,484.335,311.8z"/>
		<polygon fill="#736357" points="475.431,294.15 471.603,302.959 455.037,306.211 478.436,304.143 499.017,308.491 
			510.266,309.387 481.617,295.643 		"/>
		<polygon fill="#736357" points="475.196,325.237 478.035,326.237 491.971,321.424 498.861,317.873 480.616,323.778 		"/>
		
			<ellipse transform="matrix(0.998 -0.0625 0.0625 0.998 -18.6153 30.4202)" fill="#4F4F4F" cx="476.939" cy="312.763" rx="2.197" ry="3.59"/>
	</g>
	<polygon fill="#DDC4BC" points="449.5,372.123 452.327,361.578 456.67,355.799 	"/>
	<polygon fill="#DDC4BC" points="476.939,461.647 585.01,424.02 614.637,372.123 632.213,378.149 655.312,366.6 673.389,317.544 
		643.762,296.706 623.174,312.393 652.299,291.277 673.389,307.177 680.419,328.266 673.389,346.514 653.805,377.647 
		643.26,390.955 690.389,361.433 652.801,412.01 660.709,449.995 623.174,403.844 602.084,479.584 605.096,427.862 541.826,463.025 
		536.783,468.712 533.791,460 	"/>
	<polygon fill="#736357" points="433,367 438,367 447.267,372.123 435.369,369.562 	"/>
	<polygon fill="#736357" points="649.914,309.387 636.69,316.349 643.302,322.792 652.789,326.237 648.764,316.349 656.238,312.482 
			"/>
	<polygon fill="#736357" points="632,332 632,342 632,350 624.616,354.783 643.589,346.733 636.69,342.341 	"/>
	<polygon fill="#A59284" points="655.88,318.591 659.234,335.972 649.364,355 621,355 647.639,343.391 	"/>
	<ellipse opacity="0.62" fill="#FFFFFF" cx="484.91" cy="314.555" rx="7.747" ry="1.791"/>
	<polygon opacity="0.65" fill="#FFF0EB" points="534.9,295.768 488.558,326.856 487.577,360.562 537.775,314.792 	"/>
	<polygon fill="#DDC4BC" points="629.791,310.67 606.218,302.959 609.093,264.841 	"/>
	<path fill="#FFE6DE" d="M483.721,259.767c0,0-13.622-7.079-15.585-6.07c-1.962,1.008-26.147,21.445-26.147,21.445l48.54-8.601
		L483.721,259.767z"/>
	<polygon fill="#FFE6DE" points="419.869,355.901 433,352.232 433,337 	"/>
</g>
</svg>
